# xmcd
#
# Track frame offsets:
#	150
#	11025
#	25920
#	39855
#	59043
#	81275
#	95728
#	99040
#	118988
#	143805
#	164958
#
# Disc length: 2569 seconds
#
# Revision: 0
# Processed by: cddbd v1.4PL0 Copyright (c) Steve Scherf et al.
# Submitted via: dBpowerAMP V4.0
#
DISCID=960a070b
DTITLE=Sonny Kenn - Can't Stop Now
DYEAR=1900
DGENRE=
TTITLE0=I Wanna Quit My Day Job
TTITLE1=Dance a Little Closer to Me
TTITLE2=Walking On The Razor's Edge
TTITLE3=Faster, Faster
TTITLE4=Enough Is Enough
TTITLE5=Dig The Dirt
TTITLE6=Enough Is Not Enough
TTITLE7=It's Time For The Blues
TTITLE8=Homicide Queen
TTITLE9=Driving Blind
TTITLE10=Fade to Black
EXTD=
EXTT0=
EXTT1=
EXTT2=
EXTT3=
EXTT4=
EXTT5=
EXTT6=
EXTT7=
EXTT8=
EXTT9=
EXTT10=
PLAYORDER=
